<?xml version="1.0" standalone="no"?><!DOCTYPE svg PUBLIC "-//W3C//DTD SVG 1.1//EN" "http://www.w3.org/Graphics/SVG/1.1/DTD/svg11.dtd"><svg class="icon" width="200px" height="200.00px" viewBox="0 0 1024 1024" version="1.1" xmlns="http://www.w3.org/2000/svg"><path fill="#333333" d="M846.395 223.467h-666.8c-44.995 0-81.591 36.596-81.591 81.591V721.35c0 44.985 36.596 81.601 81.591 81.601h666.799c44.985 0 81.601-36.616 81.601-81.601V305.058c0.001-44.995-36.616-81.591-81.6-81.591z m41.6 497.883c0 22.938-18.663 41.601-41.601 41.601H179.595c-22.938 0-41.611-18.663-41.611-41.601v-42.148h750.011v42.148z m0-83.647H137.984V305.058c0-22.938 18.673-41.611 41.611-41.611h666.799c22.938 0 41.601 18.673 41.601 41.611v332.645z"  /><path fill="#333333" d="M401.364 488.959l-45.107-131.915H317.23l63.708 178.237h38.42l63.829-178.237h-38.176zM500.452 357.044h35.988v178.237h-35.988zM671.273 359.719c-6.646-1.783-20.912-2.675-42.796-2.675h-57.751v178.237h35.988v-67.234h23.465c16.292 0 28.734-0.851 37.325-2.553 6.322-1.378 12.543-4.195 18.663-8.45 6.12-4.255 11.165-10.111 15.137-17.568s5.957-16.657 5.957-27.599c0-14.184-3.445-25.755-10.334-34.711-6.89-8.957-15.441-14.773-25.654-17.447z m-5.167 66.504c-2.715 3.972-6.464 6.89-11.246 8.754-4.782 1.864-14.265 2.796-28.45 2.796h-19.696v-50.578H624.1c12.969 0 21.601 0.405 25.897 1.216 5.836 1.054 10.659 3.688 14.468 7.903 3.81 4.215 5.714 9.564 5.714 16.049 0 5.269-1.358 9.889-4.073 13.86zM243.253 429.455h-41.5c-11.459 0-20.75 9.291-20.75 20.75s9.291 20.75 20.75 20.75h41.5c11.459 0 20.75-9.291 20.75-20.75s-9.291-20.75-20.75-20.75zM824.247 429.455h-41.5c-11.469 0-20.75 9.291-20.75 20.75s9.281 20.75 20.75 20.75h41.5c11.469 0 20.75-9.291 20.75-20.75s-9.281-20.75-20.75-20.75z"  /></svg>