<?xml version="1.0" standalone="no"?><!DOCTYPE svg PUBLIC "-//W3C//DTD SVG 1.1//EN" "http://www.w3.org/Graphics/SVG/1.1/DTD/svg11.dtd"><svg class="icon" width="200px" height="200.00px" viewBox="0 0 1024 1024" version="1.1" xmlns="http://www.w3.org/2000/svg"><path d="M238.933333 281.6a34.133333 34.133333 0 0 0-34.133333 34.133333v349.866667a34.133333 34.133333 0 0 0 34.133333 34.133333h70.4256l58.043734 50.286934a34.133333 34.133333 0 0 0 41.915733 2.167466L484.309333 699.733333H759.466667a34.133333 34.133333 0 0 0 34.133333-34.133333V315.733333a34.133333 34.133333 0 0 0-34.133333-34.133333H238.933333z m0-34.133333h520.533334a68.266667 68.266667 0 0 1 68.266666 68.266666v349.866667a68.266667 68.266667 0 0 1-68.266666 68.266667H495.061333l-66.184533 46.293333a68.266667 68.266667 0 0 1-83.831467-4.343467L296.6272 733.866667H238.933333a68.266667 68.266667 0 0 1-68.266666-68.266667V315.733333a68.266667 68.266667 0 0 1 68.266666-68.266666z" fill="#4C4C4C" /><path d="M307.2 384m25.6 0l324.266667 0q25.6 0 25.6 25.6l0 0q0 25.6-25.6 25.6l-324.266667 0q-25.6 0-25.6-25.6l0 0q0-25.6 25.6-25.6Z" fill="#B5B5B5" /><path d="M307.2 469.333333m25.6 0l110.933333 0q25.6 0 25.6 25.6l0 0q0 25.6-25.6 25.6l-110.933333 0q-25.6 0-25.6-25.6l0 0q0-25.6 25.6-25.6Z" fill="#B5B5B5" /></svg>